<svg width="120" height="69" viewBox="0 0 120 69" fill="none" xmlns="http://www.w3.org/2000/svg">
<g id="logo_ESIC_blanco 1">
<path id="Vector" d="M7.52577 7.29018H44.8454V0H0V13.3482H7.52577V7.29018ZM37.4227 58.6295H0V65.817H44.8454V52.4688H37.3196L37.4227 58.6295ZM84.5361 15.7098H75.0516V50.2098H84.5361V15.7098ZM53.9175 25.4643C53.9175 23.8214 55.3608 23 58.1443 23C61.5464 23.1027 64.7423 24.0268 67.6289 25.7723V17.8661C64.1237 16.3259 60.4124 15.6071 56.5979 15.6071C49.0722 15.6071 44.0206 19.4062 44.0206 25.2589C44.0206 35.2188 59.5876 35.5268 59.5876 40.3527C59.5876 42.0982 57.9381 43.0223 54.6392 43.0223C51.2371 42.9196 47.9381 41.8929 44.9485 40.25V48.0536C48.3505 49.4911 52.0619 50.3125 55.7732 50.2098C64.5361 50.2098 69.2784 45.8973 69.2784 40.1473C69.4845 29.4688 53.8144 29.1607 53.9175 25.4643ZM39.1753 32.6518C39.1753 22.0759 32.8866 15.4018 22.6804 15.4018C18.0412 15.2991 13.5052 17.0446 10.2062 20.433C7.01031 23.7188 5.25773 28.2366 5.46392 32.8571C5.36083 37.4777 7.1134 41.9955 10.3093 45.3839C13.6082 48.6696 18.3505 50.3125 24.433 50.3125C28.1443 50.4152 31.8557 49.5938 35.2577 48.0536V40.25C32.268 41.8929 28.866 42.7143 25.4639 42.6116C19.2784 42.6116 15.9794 40.0446 15.4639 34.808H39.1753V32.6518ZM15.7732 28.6473C16.701 25.0536 19.4845 22.5893 23.0928 22.5893C26.701 22.5893 29.0722 24.6429 30 28.6473H15.7732ZM107.629 50.4152C112.165 50.4152 115.773 49.6964 118.557 48.1563V40.25C115.979 41.7902 112.99 42.6116 110 42.5089C104.124 42.5089 100.412 38.9152 100.412 33.1652V32.8571C100.412 27.1071 104.124 23.5134 110 23.5134C112.99 23.5134 115.979 24.2321 118.557 25.7723V17.8661C115.773 16.4286 112.165 15.6071 107.629 15.6071C102.165 15.6071 97.9381 17.1473 94.8454 20.3304C91.7526 23.6161 90.1031 28.0313 90.3093 32.5491V33.4732C90.1031 37.9911 91.7526 42.4062 94.8454 45.692C97.8351 48.875 102.165 50.4152 107.629 50.4152Z" fill="white"/>
</g>
</svg>
