<?xml version="1.0" encoding="UTF-8"?><svg id="Capa_2" xmlns="http://www.w3.org/2000/svg" viewBox="0 0 250 87.5"><defs><style>.cls-1{fill:#fff;}</style></defs><g id="Capa_1-2"><polygon class="cls-1" points="123.1 0 123.1 7.85 123.1 14.47 131.12 14.47 131.12 7.85 171.11 7.85 171.11 0 123.1 0"/><polygon class="cls-1" points="171.11 56.92 163.09 56.92 163.09 63.54 123.1 63.54 123.1 63.54 123.1 71.39 171.11 71.39 171.11 63.54 171.11 56.92"/><rect class="cls-1" x="203.42" y="17.02" width="10.18" height="37.39"/><path class="cls-1" d="M180.84,27.62c0-1.76,1.52-2.65,4.49-2.65,3.29,0,6.65,.96,10.18,2.97v-8.59c-3.93-1.68-7.86-2.48-11.78-2.48-8.02,0-13.47,4.09-13.47,10.5,0,10.74,16.67,11.14,16.67,16.35,0,1.92-1.76,2.89-5.29,2.89-2.93,0-7.02-1.1-10.35-3.03v8.42c3.29,1.46,7.14,2.38,11.55,2.38,9.38,0,14.51-4.73,14.51-10.9,.08-11.54-16.59-11.86-16.51-15.87"/><polygon class="cls-1" points="123.1 0 123.1 7.85 123.1 14.47 131.12 14.47 131.12 7.85 171.11 7.85 171.11 0 123.1 0"/><polygon class="cls-1" points="171.11 56.92 163.09 56.92 163.09 63.54 123.1 63.54 123.1 63.54 123.1 71.39 171.11 71.39 171.11 63.54 171.11 56.92"/><path class="cls-1" d="M147.75,24.5c3.93,0,6.41,2.16,7.38,6.57h-15.15c.96-3.93,3.93-6.57,7.78-6.57m13.14,19.11c-3.45,1.84-6.92,2.62-10.5,2.62-6.57,0-10.18-2.81-10.74-8.42h25.41v-2.41c0-11.46-6.73-18.68-17.72-18.68-5.45,0-9.86,1.84-13.31,5.45-3.45,3.61-5.13,8.02-5.13,13.39s1.76,10.1,5.21,13.63c3.53,3.53,8.58,5.29,15.15,5.29,4.32,0,8.22-.83,11.62-2.49v-8.38Z"/><path class="cls-1" d="M240.86,25.44c3.29,0,6.33,.8,9.14,2.49v-8.58c-2.97-1.6-6.81-2.4-11.7-2.4-5.85,0-10.42,1.68-13.71,5.13-3.29,3.45-4.89,7.86-4.89,13.23v.96c0,5.37,1.6,9.78,4.89,13.23,3.29,3.45,7.86,5.13,13.71,5.13,4.89,0,8.74-.8,11.7-2.4v-8.58c-2.81,1.68-5.85,2.49-9.14,2.49-6.33,0-10.26-3.85-10.26-10.18,0-.01,0-.36,0-.4,.03-6.29,3.95-10.1,10.26-10.1"/><path class="cls-1" d="M2.69,26.85c.08,.08,.15,.08,.23,.08,2.54-5.15,7.38-7.53,11.99-7.53,5.84,0,10.15,3,11.3,8.61,2.15-5.46,7.46-8.61,12.38-8.61,7.99,0,12.53,4.61,12.53,13.14v21.68h-2.84v-21.52c0-7.15-3.54-10.76-9.69-10.76-3.08,0-5.77,1.15-8.15,3.54-2.31,2.38-3.46,5.84-3.46,10.45v18.3h-2.84v-21.52c0-7.15-3.61-10.76-9.38-10.76-3.31,0-6.07,1.23-8.46,3.69-2.31,2.38-3.46,5.84-3.46,10.3v18.3H0V20.17H2.23l.46,6.69Z"/><path class="cls-1" d="M74.01,13.17h-2.31l9.22-10.99,3.15,1.08-10.07,9.92Zm7.61,35.9c2.69-2.31,4-5.77,4-10.45v-2h-9.76c-8.61,0-12.91,2.92-12.91,8.69,0,4.61,3.92,7.23,9.23,7.23,3.61,0,6.76-1.15,9.45-3.46m4.07-2.15l-.08-.08h-.15c-2.15,5.53-7.76,8.07-13.91,8.07-7.69,0-11.53-4.23-11.53-9.38,0-7.46,5.38-11.15,16.14-11.15h9.45v-2.38c0-6.38-3.46-10.15-10.84-10.15-3.77,0-7.53,1.08-11.22,3.31v-2.69c3.31-2.07,7.07-3.07,11.38-3.07,8.99,0,13.53,4.3,13.53,12.99v21.83h-2.23l-.54-7.3Z"/><path class="cls-1" d="M96.32,48.91c3.31,2.38,7.07,3.61,11.3,3.61,5.53,0,9.61-2.15,9.61-6.77,0-3.38-3.07-5.84-6.84-7.3-5.53-2.23-12.6-4.38-12.6-10.38s4.92-8.69,10.84-8.69c3.54,0,6.84,.77,9.92,2.31v2.84c-3.3-1.84-6.46-2.77-9.61-2.77-4.61,0-8.23,1.77-8.23,6.15,0,2.84,3.07,4.92,6.84,6.46,5.53,2.08,12.53,4.53,12.53,10.92s-5.23,9.61-12.22,9.61c-4.46,0-8.3-1-11.53-3.08v-2.92Z"/><g><path class="cls-1" d="M128.36,87.36h-5.93v-8.56h5.64v1.18h-4.15v2.32h3.77v1.15h-3.77v2.72h4.44v1.18Z"/><path class="cls-1" d="M131.98,84.61l-1.66,2.75h-1.41c.27-.49,1.6-2.46,1.87-2.96-.31-.47-1.45-2.35-1.76-2.81h1.41l1.56,2.59c.52-.86,1.01-1.72,1.54-2.59h1.43c-.58,.93-1.23,1.87-1.8,2.8l1.89,2.97h-1.44c-.54-.91-1.08-1.83-1.62-2.75Z"/><path class="cls-1" d="M137.7,79.76v1.83h1.58v1.04h-1.58v2.76c0,.62,.18,.97,.79,.97,.25,0,.63-.09,1.02-.34v1.08c-.43,.29-.99,.39-1.39,.39-1.45,0-1.79-.87-1.79-2.18v-2.69h-.92v-.78l1.04-.3,.97-1.79h.27Z"/><path class="cls-1" d="M145.9,84.41v.32h-4.32c.08,1.18,.92,1.7,1.92,1.7,.67,0,1.36-.16,2.13-.7v1.13c-.62,.43-1.41,.64-2.23,.64-2.08,0-3.19-1.3-3.19-3.05s1.19-3.04,2.92-3.04,2.78,1.25,2.78,3Zm-4.28-.57h3.02c-.14-.84-.65-1.4-1.47-1.4s-1.41,.58-1.56,1.4Z"/><path class="cls-1" d="M151.34,87.36v-3.35c0-.88-.44-1.46-1.15-1.46-.84,0-1.56,.57-1.56,1.84v2.97h-1.36v-5.77h1.01c.04,.13,.16,.7,.2,.83h.05c.58-.73,1.34-.96,2.04-.96,1.41,0,2.14,.87,2.14,2.32v3.58h-1.36Z"/><path class="cls-1" d="M153.83,85.81c.62,.47,1.41,.69,1.92,.69,.62,0,1.09-.18,1.09-.69,0-1.1-2.84-1-2.84-2.74,0-1.06,.92-1.63,2.06-1.63,.47,0,1.17,.1,1.82,.39v1.12c-.54-.31-1.17-.48-1.62-.48-.52,0-.91,.16-.91,.62,0,.86,2.81,.77,2.81,2.66,0,1-.82,1.74-2.26,1.74-.61,0-1.44-.13-2.08-.49v-1.18Z"/><path class="cls-1" d="M160.18,80.54c-.48,0-.79-.36-.79-.79,0-.45,.39-.79,.79-.79,.45,0,.79,.35,.79,.79s-.32,.79-.79,.79Zm-.71,6.82v-5.77h1.38v5.77h-1.38Z"/><path class="cls-1" d="M168.58,84.46c0,1.73-1.28,3.02-3.13,3.02-1.97,0-3.15-1.31-3.15-3.02s1.34-3.04,3.15-3.04,3.13,1.32,3.13,3.04Zm-4.9-.03c0,1.12,.65,1.95,1.79,1.95s1.79-.87,1.79-1.95-.7-1.91-1.79-1.91-1.79,.87-1.79,1.91Zm1.17-3.84c.25-.39,1.21-1.8,1.47-2.19l1.09,.44-1.7,1.75h-.86Z"/><path class="cls-1" d="M174,87.36v-3.35c0-.88-.44-1.46-1.15-1.46-.84,0-1.56,.57-1.56,1.84v2.97h-1.36v-5.77h1.01c.04,.13,.16,.7,.19,.83h.05c.58-.73,1.34-.96,2.04-.96,1.41,0,2.14,.87,2.14,2.32v3.58h-1.36Z"/><path class="cls-1" d="M185.83,78.8h1.48v5.28c0,1.97-1.22,3.42-3.53,3.42s-3.53-1.39-3.53-3.41v-5.29h1.49v5.24c0,1.15,.63,2.22,2.05,2.22s2.04-.99,2.04-2.15v-5.3Z"/><path class="cls-1" d="M193.16,87.36v-3.35c0-.88-.44-1.46-1.15-1.46-.84,0-1.56,.57-1.56,1.84v2.97h-1.36v-5.77h1.01c.04,.13,.16,.7,.2,.83h.05c.58-.73,1.34-.96,2.04-.96,1.41,0,2.14,.87,2.14,2.32v3.58h-1.36Z"/><path class="cls-1" d="M196.98,80.54c-.48,0-.79-.36-.79-.79,0-.45,.39-.79,.79-.79,.45,0,.79,.35,.79,.79s-.32,.79-.79,.79Zm-.71,6.82v-5.77h1.38v5.77h-1.38Z"/><path class="cls-1" d="M201.66,87.44c-.97-1.95-1.96-3.89-2.93-5.85h1.48c.21,.51,.47,.97,.69,1.45l.92,2.04h.04c.53-1.27,1.04-2.35,1.57-3.49h1.48l-2.96,5.85h-.29Z"/><path class="cls-1" d="M211.27,84.41v.32h-4.32c.08,1.18,.92,1.7,1.92,1.7,.67,0,1.36-.16,2.13-.7v1.13c-.62,.43-1.41,.64-2.23,.64-2.08,0-3.19-1.3-3.19-3.05s1.19-3.04,2.92-3.04,2.78,1.25,2.78,3Zm-4.28-.57h3.02c-.14-.84-.65-1.4-1.47-1.4s-1.41,.58-1.56,1.4Z"/><path class="cls-1" d="M213.99,84.7v2.66h-1.36v-5.76h1l.19,.96s.03,.01,.05,.01c.36-.74,1.02-1.13,1.8-1.13,.18,0,.43,.03,.61,.1v1.26c-.23-.09-.52-.14-.75-.14-.92,0-1.54,.8-1.54,2.04Z"/><path class="cls-1" d="M216.68,85.81c.62,.47,1.41,.69,1.92,.69,.62,0,1.09-.18,1.09-.69,0-1.1-2.84-1-2.84-2.74,0-1.06,.92-1.63,2.06-1.63,.47,0,1.17,.1,1.82,.39v1.12c-.54-.31-1.17-.48-1.62-.48-.52,0-.91,.16-.91,.62,0,.86,2.81,.77,2.81,2.66,0,1-.82,1.74-2.26,1.74-.61,0-1.44-.13-2.08-.49v-1.18Z"/><path class="cls-1" d="M223.03,80.54c-.48,0-.79-.36-.79-.79,0-.45,.39-.79,.79-.79,.45,0,.79,.35,.79,.79s-.32,.79-.79,.79Zm-.71,6.82v-5.77h1.38v5.77h-1.38Z"/><path class="cls-1" d="M227.18,79.76v1.83h1.58v1.04h-1.58v2.76c0,.62,.18,.97,.79,.97,.25,0,.63-.09,1.02-.34v1.08c-.43,.29-.99,.39-1.39,.39-1.45,0-1.79-.87-1.79-2.18v-2.69h-.92v-.78l1.04-.3,.97-1.79h.27Z"/><path class="cls-1" d="M233.72,86.64c-.42,.52-1.15,.86-2.08,.86-1.47,0-1.97-.89-1.97-1.66,0-1.14,.82-2.01,2.69-2.01h1.25v-.16c0-.8-.47-1.23-1.45-1.23-.48,0-1.17,.17-1.82,.52v-1.06c.56-.29,1.44-.47,2.1-.47,1.84,0,2.53,.93,2.53,2.4v3.53h-1.08l-.13-.71h-.04Zm-1.58-.08c.99,0,1.48-.77,1.48-1.58v-.32h-1.15c-.93,0-1.47,.31-1.47,1.01,0,.6,.51,.9,1.14,.9Z"/><path class="cls-1" d="M237.97,84.7v2.66h-1.36v-5.76h1l.19,.96s.03,.01,.05,.01c.36-.74,1.02-1.13,1.8-1.13,.18,0,.43,.03,.61,.1v1.26c-.23-.09-.52-.14-.75-.14-.92,0-1.54,.8-1.54,2.04Z"/><path class="cls-1" d="M241.99,80.54c-.48,0-.79-.36-.79-.79,0-.45,.39-.79,.79-.79,.45,0,.79,.35,.79,.79s-.32,.79-.79,.79Zm-.71,6.82v-5.77h1.38v5.77h-1.38Z"/><path class="cls-1" d="M248.14,86.64c-.42,.52-1.15,.86-2.08,.86-1.47,0-1.97-.89-1.97-1.66,0-1.14,.82-2.01,2.69-2.01h1.25v-.16c0-.8-.47-1.23-1.45-1.23-.48,0-1.17,.17-1.82,.52v-1.06c.56-.29,1.44-.47,2.1-.47,1.84,0,2.53,.93,2.53,2.4v3.53h-1.08l-.13-.71h-.04Zm-1.58-.08c.99,0,1.48-.77,1.48-1.58v-.32h-1.15c-.93,0-1.47,.31-1.47,1.01,0,.6,.51,.9,1.14,.9Z"/></g></g></svg>