<svg width="199" height="210" viewBox="0 0 199 210" fill="none" xmlns="http://www.w3.org/2000/svg">
<g id="Group 7">
<rect id="Rectangle 7" x="2.09918" y="1.91986" width="194.489" height="206.198" fill="white" stroke="#0047E9" stroke-width="3"/>
<g id="Group 4">
<circle id="Ellipse 6" cx="99.2268" cy="87.7032" r="27.6768" fill="#0047E9" stroke="#0047E9" stroke-width="3"/>
<g id="Ellipse 7">
<mask id="path-3-inside-1_53_98" fill="white">
<path d="M143.478 164.414C143.478 152.517 138.752 141.106 130.339 132.694C121.927 124.281 110.516 119.555 98.619 119.555C86.7216 119.555 75.3114 124.281 66.8987 132.694C58.4859 141.106 53.7597 152.517 53.7597 164.414L98.619 164.414H143.478Z"/>
</mask>
<path d="M143.478 164.414C143.478 152.517 138.752 141.106 130.339 132.694C121.927 124.281 110.516 119.555 98.619 119.555C86.7216 119.555 75.3114 124.281 66.8987 132.694C58.4859 141.106 53.7597 152.517 53.7597 164.414L98.619 164.414H143.478Z" fill="#0047E9" stroke="#0047E9" stroke-width="6" mask="url(#path-3-inside-1_53_98)"/>
</g>
</g>
<g id="Group 5">
<circle id="Ellipse 6_2" cx="158.555" cy="72.5413" r="18.3219" fill="#0047E9" stroke="#0047E9" stroke-width="3"/>
<g id="Ellipse 7_2">
<mask id="path-5-inside-2_53_98" fill="white">
<path d="M188.618 124.656C188.618 116.574 185.407 108.822 179.692 103.107C173.977 97.3912 166.225 94.1803 158.142 94.1803C150.059 94.1803 142.308 97.3912 136.592 103.107C130.877 108.822 127.666 116.574 127.666 124.656L158.142 124.656H188.618Z"/>
</mask>
<path d="M188.618 124.656C188.618 116.574 185.407 108.822 179.692 103.107C173.977 97.3912 166.225 94.1803 158.142 94.1803C150.059 94.1803 142.308 97.3912 136.592 103.107C130.877 108.822 127.666 116.574 127.666 124.656L158.142 124.656H188.618Z" fill="#0047E9" stroke="#0047E9" stroke-width="6" mask="url(#path-5-inside-2_53_98)"/>
</g>
</g>
<g id="Group 6">
<circle id="Ellipse 6_3" cx="42.4165" cy="72.5413" r="18.3219" fill="#0047E9" stroke="#0047E9" stroke-width="3"/>
<g id="Ellipse 7_3">
<mask id="path-7-inside-3_53_98" fill="white">
<path d="M72.4797 124.656C72.4797 116.574 69.2688 108.822 63.5535 103.107C57.8381 97.3912 50.0864 94.1803 42.0036 94.1803C33.9208 94.1803 26.1691 97.3912 20.4537 103.107C14.7383 108.822 11.5275 116.574 11.5275 124.656L42.0036 124.656H72.4797Z"/>
</mask>
<path d="M72.4797 124.656C72.4797 116.574 69.2688 108.822 63.5535 103.107C57.8381 97.3912 50.0864 94.1803 42.0036 94.1803C33.9208 94.1803 26.1691 97.3912 20.4537 103.107C14.7383 108.822 11.5275 116.574 11.5275 124.656L42.0036 124.656H72.4797Z" fill="#0047E9" stroke="#0047E9" stroke-width="6" mask="url(#path-7-inside-3_53_98)"/>
</g>
</g>
</g>
</svg>
